#tb 0: 1/25
#media_type 0: video
#codec_id 0: rawvideo
#dimensions 0: 720x480
#sar 0: 0/1
0,          1,          1,        1,   518400, 0xbf168f4e
0,          2,          2,        1,   518400, 0xeda5e54f
0,          3,          3,        1,   518400, 0xef496d43
0,          4,          4,        1,   518400, 0x6b68dad5
0,          5,          5,        1,   518400, 0x9a40a7de
0,          6,          6,        1,   518400, 0x0c21c018
0,          7,          7,        1,   518400, 0x4ac5a846
0,          8,          8,        1,   518400, 0x3a1aa817
0,          9,          9,        1,   518400, 0xcc4eb434
0,         10,         10,        1,   518400, 0x4368a3c2
0,         11,         11,        1,   518400, 0xb923682f
0,         12,         12,        1,   518400, 0xd95460a8
0,         13,         13,        1,   518400, 0x8e8518aa
0,         14,         14,        1,   518400, 0x292a1a80
0,         15,         15,        1,   518400, 0xbada388e
0,         16,         16,        1,   518400, 0xa67f63c9
0,         17,         17,        1,   518400, 0x9fc77e21
0,         18,         18,        1,   518400, 0xe99dc2ac
0,         19,         19,        1,   518400, 0x17d7d080
0,         20,         20,        1,   518400, 0x41760c0b
0,         21,         21,        1,   518400, 0x3c70f34d
0,         22,         22,        1,   518400, 0x0d640285
0,         23,         23,        1,   518400, 0x448893e8
0,         24,         24,        1,   518400, 0x08194490
0,         25,         25,        1,   518400, 0xcf227031
0,         26,         26,        1,   518400, 0x8d94587d
0,         27,         27,        1,   518400, 0x696fca01
0,         28,         28,        1,   518400, 0xe0ab234b
0,         29,         29,        1,   518400, 0x0620153b
0,         30,         30,        1,   518400, 0xb78c146c
